#!OML:ASF F:\VICON\USERDATA\INSTALL\rory3\rory3.ASF
:FULLY-SPECIFIED
:DEGREES
19
root 0.49386204701595754 17.52100103864551 -14.275789734726093 6.588165419354432 -0.5597625916281918 -1.9649172821001732
lfemur -13.793605420075323 8.0466442585561 -17.368305130741103
ltibia 19.683605253704823
lfoot -10.50249926732007 4.993352011986064
ltoes -12.852696546727588
rfemur -13.79660534366203 -2.4260549686363797 19.090410642950452
rtibia 21.121605432445364
rfoot -13.053100387337734 -2.003622057837439
rtoes 4.951923425478261
lowerback -1.929295876949423 -0.707072515323928 0.5901287943892297
upperback 5.055859901204478 -1.0689208313894467 1.6385693663863716
thorax 6.351700772829654 -0.5464141930900464 1.2952577259320468
lowerneck -11.015504866137006 0.514119011829125 -2.2740470738402943
upperneck 36.58628562440697 1.0233797669625841 0.8657416457752872
head 14.376984447382792 0.23147964927364456 0.9114045963213716
lclavicle -1.6527450697261852e-15 3.649572765603898e-16
lhumerus -16.078908698176015 1.0901263977368827 88.13889629270983
lradius 17.877406498554457
lwrist -1.5128329630186093
lhand -23.618700967500917 -3.494726395816091
lfingers 7.125019999999999
lthumb 2.8456290316499158 26.465993544392074
rclavicle -1.6527450697261852e-15 3.649572765603898e-16
rhumerus -18.289610439864358 -17.349294323537833 -82.5877914157982
rradius 25.79780301329795
rwrist 32.23260696244993
rhand -18.30209351691629 -26.91379708186726
rfingers 7.125019999999999
rthumb 7.978746483620424 -56.743196812775366
20
root 0.49626689287670805 17.518901053401432 -14.28038973098022 6.561905461589738 -0.552667651581333 -2.005976633345203
lfemur -13.838505389499197 8.00910446073275 -17.330005357010368
ltibia 19.796105188166457
lfoot -10.538499231277916 4.975682044956435
ltoes -12.767296659691748
rfemur -13.79320534601014 -2.4396549135071366 19.128310394208015
rtibia 21.13510542488696
rfoot -13.044700395402407 -1.9994620655140587
rtoes 4.88315351058799
lowerback -1.8651759703801316 -0.6941076815813255 0.5795158911079338
upperback 5.033569990985107 -1.0496410227041526 1.641349313016108
thorax 6.29090090533616 -0.5374413593263159 1.3062075717827102
lowerneck -10.997704919352248 0.5114000597733718 -2.3065862718570247
upperneck 36.410885820055896 1.0332496700491425 0.850628784739033
head 14.290784738168279 0.2315866460935433 0.9104826316662236
lclavicle -1.652745085027215e-15 3.649572943471645e-16
lhumerus -15.99550878415643 0.6894577841472933 88.23479608731712
lradius 18.026206270338108
lwrist -1.2260032114279165
lhand -23.65180077835314 -3.707065558176835
lfingers 7.125019999999999
lthumb 2.8136192210737128 26.25409438572788
rclavicle -1.652745085027215e-15 3.649572943471645e-16
rhumerus -18.26141048874252 -17.106294619085997 -82.64489125506873
rradius 25.900002870519767
rwrist 32.08270730521151
rhand -18.271893703966406 -26.91069710935928
rfingers 7.125019999999999
rthumb 8.007916296349787 -56.7389968483717
21
root 0.5202746644627572 17.56189753286792 -11.620516183868911 5.999789064937248 -0.8871210976533919 -1.8560166895346295
lfemur -16.26056836876782 8.397697684997574 -17.538138754234144
ltibia 24.589657844223343
lfoot -10.448896754439268 3.457901642101076
ltoes -8.021287325858266
rfemur -15.743496444726965 -2.743074764776783 19.374380080059492
rtibia 26.207144292874894
rfoot -13.780978037579679 -1.8832217646600968
rtoes 6.727597919412063
lowerback -2.2036411030938994 -0.5107262435432676 0.9148159255362025
upperback 4.707855950408479 -0.8474757677984257 1.7684962335758738
thorax 5.7058427255648025 -0.4223027452709118 1.4166998629402223
lowerneck -11.158440965156817 0.34126058760301486 -2.1621854692167517
upperneck 35.74328127444099 0.868161940790319 1.1662909382851923
head 13.89783574182086 0.13763694396991027 0.9199093355178691
lclavicle -1.5246834607489693e-15 5.420863546357566e-16
lhumerus -15.842213437830825 -1.220513855186479 89.28881756293022
lradius 19.48062988398641
lwrist -2.086423996801357
lhand -23.385930406883418 -3.717554880078417
lfingers 7.125019999999999
lthumb 3.070285828031208 26.235782900775444
rclavicle -1.5246834607489693e-15 5.420863546357563e-16
rhumerus -18.242750910185794 -13.480584364196327 -82.42178824015691
rradius 27.54956984090431
rwrist 34.059012898726166
rhand -17.789223675010835 -26.955751968669418
rfingers 7.125019999999999
rthumb 8.473719162965429 -56.78714973867129
22
root 0.531184138466589 17.591527565321886 -11.392765346466836 6.28419509988505 -0.9772782178429865 -1.8203762924901432
lfemur -17.022225192445607 8.709065815793565 -17.7300841874748
ltibia 25.055504944638617
lfoot -10.036586073648397 3.27945868932112
ltoes -7.304384109838388
rfemur -16.41476663540499 -2.911000028975571 19.48253303462591
rtibia 26.54497689295947
rfoot -13.263038763068819 -2.047506006168665
rtoes 7.352633523121622
lowerback -1.5186864559012925 -0.42408718309386545 0.9571901961684484
upperback 4.768375592889047 -0.7079683514247126 1.791076505405686
thorax 5.3785999726024585 -0.35562740011898264 1.4243762001445317
lowerneck -11.287820431884006 0.29101868282768384 -2.113781580804932
upperneck 34.89659823732887 0.7751451992399478 1.1506114136619023
head 13.58679420870563 0.11368663311470964 0.9034454165807191
lclavicle -1.4799010247031487e-15 6.024460162253422e-16
lhumerus -16.11674207479666 -2.731471282120995 89.79180422859272
lradius 20.632725854387783
lwrist -1.316395416332652
lhand -23.176265762256683 -3.472767787093207
lfingers 7.125019999999999
lthumb 3.272748468925271 26.477794463370543
rclavicle -1.4799010247031487e-15 6.024460162253419e-16
rhumerus -18.17753370581574 -12.42041945727393 -82.39424736672116
rradius 28.06758313252595
rwrist 34.16877775586862
rhand -17.55515087506496 -26.929888424441906
rfingers 7.125019999999999
rthumb 8.699487758011193 -56.75073934166595
23
root 0.5409628729825393 17.58146845854417 -11.401114026503507 6.597327947461546 -1.034259951220137 -1.8379697955426746
lfemur -17.66645237047076 8.966905055526091 -17.87981363966715
ltibia 25.378147145129095
lfoot -9.91658232560261 3.204853259694548
ltoes -7.000252673064546
rfemur -17.002844250546083 -2.988421461297696 19.566184426145927
rtibia 26.752209213147726
rfoot -12.999225408118061 -2.092445085757584
rtoes 7.567213613333388
lowerback -1.0619289134686833 -0.33992667337449545 0.9464116905682569
upperback 4.860466446889668 -0.5848874680353979 1.7882571332602384
thorax 5.184137049919742 -0.29579709112182156 1.4231905263445952
lowerneck -11.36993683746666 0.25995567855965834 -2.0935917840483587
upperneck 34.26621111409587 0.7277274800170124 1.1377061547430587
head 13.350200891895199 0.10014262228049459 0.8944028901452259
lclavicle -1.4441513589126467e-15 6.493387535816313e-16
lhumerus -16.6247844621126 -3.6720606401347204 89.96656908298907
lradius 21.397557511436947
lwrist -0.12252926759088911
lhand -22.982400128266622 -3.201321436893602
lfingers 7.125019999999999
lthumb 3.4599376887075057 26.743219014850403
rclavicle -1.4441513589126465e-15 6.493387535816311e-16
rhumerus -18.195076850488604 -11.603084367589117 -82.39623377251705
rradius 28.536312281979107
rwrist 33.936561778247
rhand -17.351896246566522 -26.913234645119516
rfingers 7.125019999999999
rthumb 8.895562255766501 -56.727045641394994
